<?xml version="1.0" encoding="UTF-8"?><svg id="_レイヤー_2" xmlns="http://www.w3.org/2000/svg" viewBox="0 0 50 50"><defs><style>.cls-1{fill:#fff;}.cls-2{fill:#06c755;}</style></defs><g id="_文字"><path class="cls-2" d="M38.73,0H11.27C5.05,0,0,5.05,0,11.27v27.46c0,6.23,5.05,11.27,11.27,11.27h27.46c6.23,0,11.27-5.05,11.27-11.27V11.27c0-6.23-5.05-11.27-11.27-11.27ZM38.09,30.97h0c-3.5,4.03-11.32,8.93-13.1,9.68-1.78.75-1.52-.48-1.44-.9.04-.25.24-1.43.24-1.43.06-.43.11-1.09-.05-1.51-.19-.46-.93-.7-1.47-.82-8.01-1.06-13.94-6.66-13.94-13.35,0-7.46,7.48-13.53,16.67-13.53s16.67,6.07,16.67,13.53c0,2.99-1.16,5.67-3.57,8.32Z"/><path class="cls-1" d="M24.99,9.12c-9.19,0-16.67,6.07-16.67,13.53,0,6.69,5.93,12.29,13.94,13.35.54.12,1.28.36,1.47.82.17.42.11,1.08.05,1.51,0,0-.2,1.18-.24,1.43-.07.42-.34,1.65,1.44.9,1.78-.75,9.6-5.65,13.1-9.68h0c2.42-2.65,3.57-5.34,3.57-8.32,0-7.46-7.48-13.53-16.67-13.53ZM19.11,26.63c0,.18-.14.32-.32.32h-4.68c-.18,0-.32-.14-.32-.32v-7.28c0-.18.14-.32.32-.32h1.18c.18,0,.32.14.32.32v5.77h3.18c.18,0,.32.14.32.32v1.18ZM21.93,26.63c0,.18-.14.32-.32.32h-1.18c-.18,0-.32-.14-.32-.32v-7.28c0-.18.14-.32.32-.32h1.18c.18,0,.32.14.32.32v7.28ZM29.98,26.63c0,.18-.14.32-.32.32h-1.18s-.06,0-.08-.01c0,0,0,0,0,0,0,0-.01,0-.02,0,0,0,0,0-.01,0,0,0-.01,0-.02,0,0,0-.01,0-.02,0,0,0,0,0,0,0,0,0-.01,0-.02-.01,0,0,0,0,0,0-.03-.02-.06-.05-.08-.08l-3.33-4.5v4.32c0,.18-.14.32-.32.32h-1.18c-.18,0-.32-.14-.32-.32v-7.28c0-.18.14-.32.32-.32h1.18s0,0,.01,0c0,0,.01,0,.02,0,0,0,.01,0,.02,0,0,0,0,0,.01,0,0,0,.01,0,.02,0,0,0,0,0,.01,0,0,0,.01,0,.02,0,0,0,0,0,.01,0,0,0,.01,0,.02,0,0,0,0,0,.01,0,0,0,.01,0,.02,0,0,0,0,0,0,0,0,0,.01,0,.02.01,0,0,0,0,0,0,0,0,.01,0,.02.01,0,0,0,0,0,0,0,0,.01.01.02.02,0,0,0,0,0,0,0,.01.02.02.03.03l3.33,4.5v-4.32c0-.18.14-.32.32-.32h1.18c.18,0,.32.14.32.32v7.28ZM36.44,20.54c0,.18-.14.32-.32.32h-3.18v1.23h3.18c.18,0,.32.14.32.32v1.18c0,.18-.14.32-.32.32h-3.18v1.23h3.18c.18,0,.32.14.32.32v1.18c0,.18-.14.32-.32.32h-4.68c-.18,0-.32-.14-.32-.32v-7.28c0-.18.14-.32.32-.32h4.68c.18,0,.32.14.32.32v1.18Z"/><path class="cls-2" d="M36.12,19.04h-4.68c-.18,0-.32.14-.32.32v7.28c0,.18.14.32.32.32h4.68c.18,0,.32-.14.32-.32v-1.18c0-.18-.14-.32-.32-.32h-3.18v-1.23h3.18c.18,0,.32-.14.32-.32v-1.18c0-.18-.14-.32-.32-.32h-3.18v-1.23h3.18c.18,0,.32-.14.32-.32v-1.18c0-.18-.14-.32-.32-.32Z"/><path class="cls-2" d="M18.8,25.13h-3.18v-5.77c0-.18-.14-.32-.32-.32h-1.18c-.18,0-.32.14-.32.32v7.28c0,.18.14.32.32.32h4.68c.18,0,.32-.14.32-.32v-1.18c0-.18-.14-.32-.32-.32Z"/><rect class="cls-2" x="20.11" y="19.04" width="1.82" height="7.91" rx=".32" ry=".32"/><path class="cls-2" d="M29.66,19.04h-1.18c-.18,0-.32.14-.32.32v4.32l-3.33-4.5s-.02-.02-.03-.03c0,0,0,0,0,0,0,0-.01-.01-.02-.02,0,0,0,0,0,0,0,0-.01,0-.02-.01,0,0,0,0,0,0,0,0-.01,0-.02-.01,0,0,0,0,0,0,0,0-.01,0-.02,0,0,0,0,0-.01,0,0,0-.01,0-.02,0,0,0,0,0-.01,0,0,0-.01,0-.02,0,0,0,0,0-.01,0,0,0-.01,0-.02,0,0,0,0,0-.01,0,0,0-.01,0-.02,0,0,0-.01,0-.02,0,0,0,0,0-.01,0h-1.18c-.18,0-.32.14-.32.32v7.28c0,.18.14.32.32.32h1.18c.18,0,.32-.14.32-.32v-4.32l3.33,4.5s.05.06.08.08c0,0,0,0,0,0,0,0,.01,0,.02.01,0,0,0,0,0,0,0,0,.01,0,.02,0,0,0,.01,0,.02,0,0,0,0,0,.01,0,0,0,.01,0,.02,0,0,0,0,0,0,0,.03,0,.05.01.08.01h1.18c.18,0,.32-.14.32-.32v-7.28c0-.18-.14-.32-.32-.32Z"/></g></svg>